<?xml version="1.0" standalone="no"?>
<!DOCTYPE svg PUBLIC "-//W3C//DTD SVG 20010904//EN"
 "http://www.w3.org/TR/2001/REC-SVG-20010904/DTD/svg10.dtd">
<svg version="1.0" xmlns="http://www.w3.org/2000/svg"
 width="401.000000pt" height="401.000000pt" viewBox="0 0 401.000000 401.000000"
 preserveAspectRatio="xMidYMid meet">
<metadata>
Created by potrace 1.11, written by Peter Selinger 2001-2013
</metadata>
<g transform="translate(0.000000,401.000000) scale(0.100000,-0.100000)"
fill="#000000" stroke="none">
<path d="M187 3845 c-3 -9 -1 -3580 2 -3615 1 -13 209 -15 1819 -15 l1817 0 0
1818 c0 999 -2 1818 -5 1818 -3 1 -821 2 -1817 3 -1223 1 -1814 -2 -1816 -9z
m3499 -1800 c0 -919 -3 -1674 -7 -1680 -5 -7 -573 -10 -1676 -9 -917 1 -1670
2 -1673 3 -8 2 -6 3345 1 3351 4 3 760 5 1681 5 l1673 0 1 -1670z"/>
<path d="M1449 3425 c0 -8 0 -58 0 -110 0 -52 0 -122 0 -155 l1 -60 354 0 353
0 -43 -117 c-24 -65 -53 -140 -63 -168 -11 -27 -68 -180 -126 -340 -59 -159
-142 -384 -185 -500 -43 -115 -119 -322 -170 -460 -50 -137 -96 -261 -102
-275 -5 -14 -28 -74 -50 -135 -22 -60 -53 -144 -68 -186 -25 -67 -28 -91 -29
-188 l0 -111 635 0 634 0 1 33 c1 35 0 274 0 295 -1 9 -86 12 -391 12 -214 0
-390 2 -390 5 0 3 38 108 84 233 47 125 135 362 196 527 206 555 248 669 396
1065 l148 395 4 128 4 127 -596 0 c-523 0 -596 -2 -597 -15z"/>
</g>
</svg>
